# xmcd
#
# Track frame offsets: 
#        150
#        16342
#        35640
#        50767
#        72068
#        98343
#        111071
#        133299
#        146819
#        171626
#        188141
#        278989
#
# Disc length: 4518 seconds
#
# Revision: 0
# Processed by: cddbd v1.5.2PL0 Copyright (c) Steve Scherf et al.
# Submitted via: ExactAudioCopy v0.99pb5
#
DISCID=b411a40c
DTITLE=Youri Blow - The Corridor
DYEAR=2010
DGENRE=Blues
TTITLE0=Ever Love
TTITLE1=Muddy Streams
TTITLE2=Strange History
TTITLE3=Blue Moutain
TTITLE4=Salmon Dreams
TTITLE5=The Corridor
TTITLE6=Tsagaan Sar
TTITLE7=Khovsgol Lake
TTITLE8=Ulan Taiga
TTITLE9=Autour du Templier
TTITLE10=l'Eveil de la goutte d'eau
TTITLE11=Data Track
EXTD=
EXTT0=
EXTT1=
EXTT2=
EXTT3=
EXTT4=
EXTT5=
EXTT6=
EXTT7=
EXTT8=
EXTT9=
EXTT10=
EXTT11=
PLAYORDER=
